<mxfile host="www.draw.io" modified="2020-01-05T02:39:08.272Z" agent="Mozilla/5.0 (Macintosh; Intel Mac OS X 10_14_0) AppleWebKit/537.36 (KHTML, like Gecko) Chrome/79.0.3945.88 Safari/537.36" etag="bxw0lH3GiGYhzhVX4aof" version="12.4.8" type="github">
  <diagram id="SEyWnrGXPdW-onMhKYoH" name="Page-1">
    <mxGraphModel dx="1186" dy="741" grid="1" gridSize="10" guides="1" tooltips="1" connect="1" arrows="1" fold="1" page="1" pageScale="1" pageWidth="827" pageHeight="1169" math="0" shadow="0">
      <root>
        <mxCell id="0"/>
        <mxCell id="1" parent="0"/>
        <mxCell id="uyV3c_RGJjTheOXFgJge-1" value="«abstarct»&#xa;Subject" style="swimlane;fontStyle=1;align=center;verticalAlign=top;childLayout=stackLayout;horizontal=1;startSize=43;horizontalStack=0;resizeParent=1;resizeParentMax=0;resizeLast=0;collapsible=1;marginBottom=0;fillColor=#F08E81;fontColor=#FFFFFF;" vertex="1" parent="1">
          <mxGeometry x="333" y="290" width="160" height="96" as="geometry"/>
        </mxCell>
        <mxCell id="uyV3c_RGJjTheOXFgJge-2" value="+ field: type" style="text;strokeColor=none;fillColor=#F08E81;align=left;verticalAlign=top;spacingLeft=4;spacingRight=4;overflow=hidden;rotatable=0;points=[[0,0.5],[1,0.5]];portConstraint=eastwest;fontColor=#FFFFFF;" vertex="1" parent="uyV3c_RGJjTheOXFgJge-1">
          <mxGeometry y="43" width="160" height="26" as="geometry"/>
        </mxCell>
        <mxCell id="uyV3c_RGJjTheOXFgJge-3" value="" style="line;strokeWidth=1;fillColor=#F08E81;align=left;verticalAlign=middle;spacingTop=-1;spacingLeft=3;spacingRight=3;rotatable=0;labelPosition=right;points=[];portConstraint=eastwest;fontColor=#FFFFFF;" vertex="1" parent="uyV3c_RGJjTheOXFgJge-1">
          <mxGeometry y="69" width="160" height="1" as="geometry"/>
        </mxCell>
        <mxCell id="uyV3c_RGJjTheOXFgJge-4" value="+ visit()" style="text;strokeColor=none;fillColor=#F08E81;align=left;verticalAlign=top;spacingLeft=4;spacingRight=4;overflow=hidden;rotatable=0;points=[[0,0.5],[1,0.5]];portConstraint=eastwest;fontColor=#FFFFFF;" vertex="1" parent="uyV3c_RGJjTheOXFgJge-1">
          <mxGeometry y="70" width="160" height="26" as="geometry"/>
        </mxCell>
        <mxCell id="uyV3c_RGJjTheOXFgJge-5" value="ProxySubject" style="swimlane;fontStyle=1;align=center;verticalAlign=top;childLayout=stackLayout;horizontal=1;startSize=26;horizontalStack=0;resizeParent=1;resizeParentMax=0;resizeLast=0;collapsible=1;marginBottom=0;fillColor=#F08E81;fontColor=#FFFFFF;" vertex="1" parent="1">
          <mxGeometry x="493" y="530" width="160" height="79" as="geometry"/>
        </mxCell>
        <mxCell id="uyV3c_RGJjTheOXFgJge-6" value="- realSubject: RealSubject" style="text;strokeColor=none;fillColor=#F08E81;align=left;verticalAlign=top;spacingLeft=4;spacingRight=4;overflow=hidden;rotatable=0;points=[[0,0.5],[1,0.5]];portConstraint=eastwest;fontColor=#FFFFFF;" vertex="1" parent="uyV3c_RGJjTheOXFgJge-5">
          <mxGeometry y="26" width="160" height="26" as="geometry"/>
        </mxCell>
        <mxCell id="uyV3c_RGJjTheOXFgJge-7" value="" style="line;strokeWidth=1;fillColor=#F08E81;align=left;verticalAlign=middle;spacingTop=-1;spacingLeft=3;spacingRight=3;rotatable=0;labelPosition=right;points=[];portConstraint=eastwest;fontColor=#FFFFFF;" vertex="1" parent="uyV3c_RGJjTheOXFgJge-5">
          <mxGeometry y="52" width="160" height="1" as="geometry"/>
        </mxCell>
        <mxCell id="uyV3c_RGJjTheOXFgJge-8" value="+ visit()" style="text;strokeColor=none;fillColor=#F08E81;align=left;verticalAlign=top;spacingLeft=4;spacingRight=4;overflow=hidden;rotatable=0;points=[[0,0.5],[1,0.5]];portConstraint=eastwest;fontColor=#FFFFFF;" vertex="1" parent="uyV3c_RGJjTheOXFgJge-5">
          <mxGeometry y="53" width="160" height="26" as="geometry"/>
        </mxCell>
        <mxCell id="uyV3c_RGJjTheOXFgJge-9" value="RealSubject" style="swimlane;fontStyle=1;align=center;verticalAlign=top;childLayout=stackLayout;horizontal=1;startSize=26;horizontalStack=0;resizeParent=1;resizeParentMax=0;resizeLast=0;collapsible=1;marginBottom=0;fillColor=#F08E81;fontColor=#FFFFFF;" vertex="1" parent="1">
          <mxGeometry x="173" y="530" width="160" height="53" as="geometry"/>
        </mxCell>
        <mxCell id="uyV3c_RGJjTheOXFgJge-11" value="" style="line;strokeWidth=1;fillColor=#F08E81;align=left;verticalAlign=middle;spacingTop=-1;spacingLeft=3;spacingRight=3;rotatable=0;labelPosition=right;points=[];portConstraint=eastwest;fontColor=#FFFFFF;" vertex="1" parent="uyV3c_RGJjTheOXFgJge-9">
          <mxGeometry y="26" width="160" height="1" as="geometry"/>
        </mxCell>
        <mxCell id="uyV3c_RGJjTheOXFgJge-12" value="+ visit()" style="text;strokeColor=none;fillColor=#F08E81;align=left;verticalAlign=top;spacingLeft=4;spacingRight=4;overflow=hidden;rotatable=0;points=[[0,0.5],[1,0.5]];portConstraint=eastwest;fontColor=#FFFFFF;" vertex="1" parent="uyV3c_RGJjTheOXFgJge-9">
          <mxGeometry y="27" width="160" height="26" as="geometry"/>
        </mxCell>
        <mxCell id="uyV3c_RGJjTheOXFgJge-14" value="Extends" style="endArrow=block;endSize=16;endFill=0;html=1;fontColor=#000000;entryX=0.5;entryY=1;entryDx=0;entryDy=0;exitX=0.5;exitY=0;exitDx=0;exitDy=0;edgeStyle=orthogonalEdgeStyle;" edge="1" parent="1" source="uyV3c_RGJjTheOXFgJge-9" target="uyV3c_RGJjTheOXFgJge-1">
          <mxGeometry width="160" relative="1" as="geometry">
            <mxPoint x="40" y="440" as="sourcePoint"/>
            <mxPoint x="200" y="440" as="targetPoint"/>
          </mxGeometry>
        </mxCell>
        <mxCell id="uyV3c_RGJjTheOXFgJge-16" value="Extends" style="endArrow=block;endSize=16;endFill=0;html=1;fontColor=#000000;exitX=0.544;exitY=0;exitDx=0;exitDy=0;exitPerimeter=0;entryX=0.5;entryY=1;entryDx=0;entryDy=0;edgeStyle=orthogonalEdgeStyle;" edge="1" parent="1" source="uyV3c_RGJjTheOXFgJge-5" target="uyV3c_RGJjTheOXFgJge-1">
          <mxGeometry width="160" relative="1" as="geometry">
            <mxPoint x="200" y="680" as="sourcePoint"/>
            <mxPoint x="400" y="640" as="targetPoint"/>
          </mxGeometry>
        </mxCell>
        <mxCell id="uyV3c_RGJjTheOXFgJge-17" value="" style="endArrow=open;endFill=1;endSize=12;html=1;fontColor=#000000;entryX=0.5;entryY=1;entryDx=0;entryDy=0;exitX=0.5;exitY=1;exitDx=0;exitDy=0;edgeStyle=orthogonalEdgeStyle;" edge="1" parent="1" source="uyV3c_RGJjTheOXFgJge-5" target="uyV3c_RGJjTheOXFgJge-9">
          <mxGeometry width="160" relative="1" as="geometry">
            <mxPoint x="160" y="710" as="sourcePoint"/>
            <mxPoint x="320" y="710" as="targetPoint"/>
            <Array as="points">
              <mxPoint x="573" y="650"/>
              <mxPoint x="253" y="650"/>
            </Array>
          </mxGeometry>
        </mxCell>
      </root>
    </mxGraphModel>
  </diagram>
</mxfile>
